<svg xmlns="http://www.w3.org/2000/svg" viewBox="0 0 47 69"><path fill-rule="evenodd" clip-rule="evenodd" fill="#E2001A" d="M0 .1h46.9v51.1H0z"/><path fill="#FFF" d="M3 56.1v2.6c0 .7.1.8.6.8h.2v.5H0v-.6h.2c.5 0 .6-.1.6-.8v-4.8c0-.7-.1-.8-.6-.8H0v-.6h4.6c.6 0 1 0 1.2.2.5.3.7.8.7 1.6 0 1.2-.4 1.9-1.2 1.9h-.1l1.4 2.7c.3.5.3.5.6.5h.1v.7H4.8L3 56.1zm0-.4h.3c.7 0 1-.3 1-1.3 0-1.1-.2-1.4-.9-1.4H3v2.7zm9.6 1.5h-1v-.3c0-.5-.1-.6-.5-.6h-.2c-.3 0-.3.1-.3.3v2.2c0 .6.1.6.8.6h.3c.6 0 .8-.1.9-.3.1-.2.1-.3.1-.9v-.5h1.2V60H7.4v-.6h.2c.5 0 .6-.1.6-.8v-4.8c0-.7-.1-.8-.6-.8h-.2v-.6h6.2v1.9h-1.2v-.4c0-.8-.2-1-1-1h-.2c-.6 0-.7.1-.7.7v1.5c0 .4 0 .4.4.4h.2c.4 0 .5-.1.5-.6v-.3h1v2.6zm5.7 2.8l-2.6-4.9v3.5c0 .7.1.8.6.8h.2v.6H14v-.6h.2c.5 0 .6-.1.6-.8v-4.8c0-.7-.1-.8-.6-.8H14v-.6h2.8l2.8 5.1v-3.7c0-.7-.1-.8-.6-.8h-.2v-.6h2.4v.6H21c-.6 0-.6.1-.6.8V60h-2.1zm9.7-1.1c.1.4.2.5.6.5h.2v.6H25v-.6h.2c.3 0 .4-.1.4-.3 0-.1 0-.1-.1-.3l-.3-1.2c-.1-.3-.1-.3-.4-.3h-1.4c-.1 0-.2.1-.2.3l-.4 1.4v.2c0 .2.1.3.3.3h.3v.5H21v-.6h.2c.4 0 .5-.1.6-.7l1.5-5c.1-.2.1-.2.1-.3 0-.3-.1-.4-.5-.4h-.2v-.6H26l2 6.5zm-4.6-2.6v.1c0 .1.1.1.2.1h1c.2 0 .2 0 .2-.1v-.1l-.7-2.6-.7 2.6zm11 1.8c0 1.4-.8 2-2.6 2-2 0-3-.7-3-2.1v-4.3c0-.7-.1-.8-.6-.8H28v-.6h3.8v.7h-.2c-.5 0-.6.1-.6.8v4.3c0 .6 0 .7.3.9.2.2.5.3 1 .3.8 0 1.3-.4 1.3-1.2v-4.3c0-.7-.1-.8-.6-.8h-.2v-.6h2.4v.6H35c-.5 0-.6.1-.6.8v4.3zm7 1.9h-6.1v-.6h.2c.6 0 .6-.1.6-.8v-4.8c0-.7-.1-.8-.6-.8h-.2v-.6h3.8v.6H39c-.5 0-.6.1-.6.8v4.8c0 .8.1.9.6.8h.3c.7 0 .9-.3.9-1.1v-.6h1.2V60z"/><path fill="#FFF" d="M47 52.5v2.2h-1.2v-.3c0-.6 0-.8-.2-1.1-.1-.1-.3-.3-.5-.3s-.3.1-.3.4v5.2c0 .7.1.8.6.8h.2v.6h-3.8v-.6h.2c.5 0 .6-.1.6-.8v-5.2c0-.3-.1-.4-.3-.4-.5 0-.6.4-.6 1.3v.4h-1.2v-2.2H47zM9 61.2v2.3H7.8v-.3c0-.6-.1-.9-.2-1.1-.1-.2-.3-.3-.5-.3s-.3.1-.3.4v5.2c0 .7.1.8.6.8h.2v.6H3.8v-.6H4c.5 0 .6-.1.6-.8v-5.2c0-.3 0-.4-.3-.4-.5 0-.6.4-.6 1.3v.4H2.5v-2.3H9zm3.1 3.6v2.5c0 .7.1.8.6.8h.2v.6H9.1v-.6h.1c.6 0 .6-.1.6-.8v-4.8c0-.7-.1-.8-.6-.8h-.1v-.6h4.6c.6 0 1 .1 1.2.2.5.3.7.8.7 1.6 0 1.2-.4 1.9-1.2 1.9h-.1l1.4 2.7c.2.5.3.5.6.5h.1v.6h-2.6l-1.7-3.8zm0-.4h.3c.7 0 1-.3 1-1.3 0-1.1-.2-1.4-.9-1.4h-.4v2.7zm10.8 2.4c0 1.4-.8 2-2.6 2-2 0-3-.7-3-2.1v-4.3c0-.7-.1-.8-.6-.8h-.1V61h3.8v.6h-.2c-.5 0-.6.1-.6.8v4.3c0 .6 0 .7.3.9.2.2.5.3 1 .3.8 0 1.3-.4 1.3-1.2v-4.3c0-.7-.1-.8-.6-.8h-.2V61h2.3v.6h-.2c-.5 0-.6.1-.6.8v4.4zm7.1-3.5h-1.2v-.4c0-.9-.4-1.4-1.2-1.4-.6 0-1 .3-1.2 1-.1.4-.1 1.2-.1 2.5 0 .8 0 1.6.1 2 .1 1 .5 1.4 1.2 1.4.8 0 1.2-.5 1.2-1.6v-.5H30v2.1c-.7.3-1.6.5-2.6.5-1.4 0-2.3-.3-2.8-1-.5-.6-.6-1.5-.6-3.1 0-2.9.8-3.8 3.5-3.8.9 0 1.3.1 2.3.3.1 0 .1 0 .2.1v1.9zm7.1 4.4c.1.3.3.4.5.4h.1v.6H35l-1.3-3.1-.4.5v1.2c0 .7.1.8.6.8h.1v.6h-3.8v-.6h.2c.5 0 .6-.1.6-.8v-4.8c0-.7-.1-.8-.6-.8h-.2v-.6H34v.6c-.5 0-.6.1-.6.8v2.3l1.9-2.5.1-.1c.1-.1.1-.2.1-.2 0-.1-.1-.1-.2-.1H35v-.6h2.3v.6h-.1c-.5 0-.5.1-.9.6l-.9 1.2 1.7 4zm6.3-4.5h-1.2V63c0-1-.4-1.4-1.1-1.4-.6 0-1 .3-1 1 0 .6.2.8 1 1.1l.4.1c1.7.6 2.2 1.2 2.2 2.5 0 .8-.2 1.4-.6 1.8-.6.5-1.4.8-2.4.8-.7 0-1.2-.1-2.4-.5l-.3-.1v-2h1.2v.4c0 1.1.4 1.6 1.2 1.6.7 0 1.1-.4 1.1-1.2 0-.8-.2-1-1.6-1.5-1.6-.6-2-1-2-2.3 0-1.7.8-2.4 2.8-2.4.8 0 1.7.1 2.5.4v1.9z"/><path fill-rule="evenodd" clip-rule="evenodd" fill="#929496" d="M37.6 25.5v.5l-9.7 17.4h-8.3L9.4 26.1v-.9L19 7.5h8.3L37 24.9v.6h.6zm-8.8 0l-5.4-10.8L18 25.5l5.4 10.7 5.4-10.7z"/><linearGradient id="a" gradientUnits="userSpaceOnUse" x1="10.088" y1="33.136" x2="36.44" y2="17.921"><stop offset="0" stop-color="#221f20"/><stop offset="1" stop-color="#fff"/></linearGradient><path fill-rule="evenodd" clip-rule="evenodd" fill="url(#a)" d="M37.9 25.5c0 .2-.1.5-.2.7L28 43.6c-.1.2-.3.3-.5.3h-8.2c-.3 0-.5-.1-.6-.3L9.2 26.2c-.2-.2-.3-.4-.3-.7 0-.3.1-.5.2-.7l9.6-17.4c.1-.2.3-.3.6-.3h8.2c.2 0 .4.1.5.3l9.7 17.4c.1.2.2.5.2.7zm-9.9 0L23.4 16l-4.6 9.5 4.6 9.4 4.6-9.4z"/><linearGradient id="b" gradientUnits="userSpaceOnUse" x1="23.051" y1="21.871" x2="29.166" y2="18.34"><stop offset="0" stop-color="#221f20"/><stop offset="1" stop-color="#a6a8aa"/></linearGradient><path fill-rule="evenodd" clip-rule="evenodd" fill="url(#b)" d="M28.8 25.5H28L23.4 16v-1.3z"/><linearGradient id="c" gradientUnits="userSpaceOnUse" x1="17.465" y1="13.19" x2="28.282" y2="19.434"><stop offset="0" stop-color="#221f20"/><stop offset="1" stop-color="#fff"/></linearGradient><path fill-rule="evenodd" clip-rule="evenodd" fill="url(#c)" d="M28 7.4c-1.3 2.3-2.7 4.6-4.6 8.7L22 19l-3.1 6.5H18l5.4-10.7c1.4-2.5 2.8-5.1 4.3-7.6.1 0 .2 0 .3.2z"/><linearGradient id="d" gradientUnits="userSpaceOnUse" x1="10.855" y1="11.94" x2="26.109" y2="20.747"><stop offset="0" stop-color="#808183"/><stop offset="1" stop-color="#fff"/></linearGradient><path fill-rule="evenodd" clip-rule="evenodd" fill="url(#d)" d="M9.2 25.5v-.4l9.7-17.6c.1-.1.2-.1.3-.1h8.3c-1.4 2.4-3 5.1-4.3 7.5L18 25.5H9.2z"/><linearGradient id="e" gradientUnits="userSpaceOnUse" x1="24.726" y1="21.172" x2="37.397" y2="13.856"><stop offset="0" stop-color="#d0d2d3"/><stop offset="1" stop-color="#fff"/></linearGradient><path fill-rule="evenodd" clip-rule="evenodd" fill="url(#e)" d="M28.8 25.5h8.8c0-.2-.1-.4-.2-.6L27.8 7.7c-1.2 2-2.5 4.2-4.1 7.7l5.1 10.1z"/><linearGradient id="f" gradientUnits="userSpaceOnUse" x1="23.237" y1="34.507" x2="19.02" y2="27.201"><stop offset="0" stop-color="#929496"/><stop offset="1" stop-color="#fff"/></linearGradient><path fill-rule="evenodd" clip-rule="evenodd" fill="url(#f)" d="M18 25.5h.9l4.5 9.4v1.3z"/><linearGradient id="g" gradientUnits="userSpaceOnUse" x1="21.911" y1="41.626" x2="25.577" y2="27.946"><stop offset="0" stop-color="#221f20"/><stop offset="1" stop-color="#a6a8aa"/></linearGradient><path fill-rule="evenodd" clip-rule="evenodd" fill="url(#g)" d="M18.8 43.6c1.3-2.3 2.7-4.6 4.6-8.7l1.4-3 3.1-6.5h.8l-5.4 10.7c-1.4 2.5-2.8 5.1-4.3 7.6 0 .1-.1 0-.2-.1z"/><linearGradient id="h" gradientUnits="userSpaceOnUse" x1="21.755" y1="30.826" x2="34.83" y2="38.375"><stop offset="0" stop-color="#404041"/><stop offset="1" stop-color="#fff"/></linearGradient><path fill-rule="evenodd" clip-rule="evenodd" fill="url(#h)" d="M37.6 25.5v.5l-9.7 17.6c-.1.1-.2.1-.3.1h-8.2c1.4-2.4 3-5.1 4.3-7.5l5.4-10.7h8.5z"/><linearGradient id="i" gradientUnits="userSpaceOnUse" x1="9.139" y1="37.258" x2="21.811" y2="29.942"><stop offset="0" stop-color="#221f20"/><stop offset="1" stop-color="#d0d2d3"/></linearGradient><path fill-rule="evenodd" clip-rule="evenodd" fill="url(#i)" d="M18 25.5H9.2c0 .2.1.4.2.6L19 43.3c1.2-2 2.5-4.2 4.1-7.7L18 25.5z"/></svg>